<?xml version="1.0" encoding="UTF-8" standalone="no"?>
<!DOCTYPE svg PUBLIC "-//W3C//DTD SVG 1.1//EN" "http://www.w3.org/Graphics/SVG/1.1/DTD/svg11.dtd">
<svg width="100%" height="100%" viewBox="0 0 128 128" version="1.1" xmlns="http://www.w3.org/2000/svg" xmlns:xlink="http://www.w3.org/1999/xlink" xml:space="preserve" xmlns:serif="http://www.serif.com/" style="fill-rule:evenodd;clip-rule:evenodd;stroke-linejoin:round;stroke-miterlimit:1.41421;">
    <g transform="matrix(2.14907,0,0,-2.81223,-49.8221,265.741)">
        <path d="M74.764,81.311C76.956,78.181 78.111,74.631 78.111,71.017C78.111,59.654 66.916,50.429 53.128,50.429C39.339,50.429 28.145,59.654 28.145,71.017C28.145,74.631 29.299,78.181 31.492,81.311L74.764,81.311Z" style="fill:rgb(0,128,128);"/>
    </g>
    <g transform="matrix(1.83636,-1.13058,1.41665,2.35995,-144.449,-36.1628)">
        <path d="M50.814,41.33L62.535,61.687L39.094,61.687L50.814,41.33Z" style="fill:rgb(0,128,128);"/>
    </g>
    <g transform="matrix(-1.83636,-1.13058,-1.41665,2.35995,274.112,-36.1628)">
        <path d="M50.814,41.33L62.535,61.687L39.094,61.687L50.814,41.33Z" style="fill:rgb(0,128,128);"/>
    </g>
    <g transform="matrix(0.5209,0,0,1.54509,17.0977,-25.6872)">
        <g transform="matrix(1.14184,0,0,1,-10.8827,0)">
            <path d="M54.978,60.625C42.977,60.625 33.234,64.909 33.234,70.186C33.234,75.464 42.977,79.748 54.978,79.748C51.378,77.517 48.455,74.001 48.455,70.186C48.455,66.372 51.378,62.856 54.978,60.625Z" style="fill:white;"/>
        </g>
        <g transform="matrix(-1.14184,0,0,1,113.842,0)">
            <path d="M54.978,60.625C42.977,60.625 33.234,64.909 33.234,70.186C33.234,75.464 42.977,79.748 54.978,79.748C51.378,77.517 48.455,74.001 48.455,70.186C48.455,66.372 51.378,62.856 54.978,60.625Z" style="fill:white;"/>
        </g>
    </g>
    <g transform="matrix(-0.5209,0,0,1.54509,111.729,-25.6872)">
        <g transform="matrix(1.14184,0,0,1,-10.8827,0)">
            <path d="M54.978,60.625C42.977,60.625 33.234,64.909 33.234,70.186C33.234,75.464 42.977,79.748 54.978,79.748C51.378,77.517 48.455,74.001 48.455,70.186C48.455,66.372 51.378,62.856 54.978,60.625Z" style="fill:white;"/>
        </g>
        <g transform="matrix(-1.14184,0,0,1,113.842,0)">
            <path d="M54.978,60.625C42.977,60.625 33.234,64.909 33.234,70.186C33.234,75.464 42.977,79.748 54.978,79.748C51.378,77.517 48.455,74.001 48.455,70.186C48.455,66.372 51.378,62.856 54.978,60.625Z" style="fill:white;"/>
        </g>
    </g>
</svg>
